/* XPM */
static char *_785_e999244f827e71411da1b7eabecbabcc8fcc7854856ce819b849026258758b38[] = {
/* columns rows colors chars-per-pixel */
"64 64 3 1 ",
"  c gray20",
". c #B2242E",
"X c None",
/* pixels */
"XXXXXXXXXXXXXXXXXXXXXXXXXXXXXXXXXXXXXXXXXXXXXXXXXXXXXXXXXXXXXXXX",
"XXXXXXXXXXXXXXXXXXXXXXXXXXXXXXXXXXXXXXXXXXXXXXXXXXXXXXXXXXXXXXXX",
"XXXXXXXXXXXXXXXXXXXXXXXXXXXXXXXXXXXXXXXXXXXXXXXXXXXXXXXXXXXXXXXX",
"                                                                ",
"                                                                ",
"                                                                ",
"                                                                ",
"                                                                ",
"                                                                ",
"                                                                ",
"XXXXXXXXXXXXXXXXXXXXXXXXXXXXXXXXXXXXXXXXXXXXXXXXXXXXXXXXXXXXXXXX",
"XXXXXXXXXXXXXXXXXXXXXXXXXXXXXXXXXXXXXXXXXXXXXXXXXXXXXXXXXXXXXXXX",
"XXXXXXXXXXXXXXXXXXXXXXXXXXXXXXXXXXXXXXXXXXXXXXXXXXXXXXXXXXXXXXXX",
"........XX       XXXX                    XXX....................",
"........XX       XXXX                    XXX....................",
"........XX       XXXX                    XXX....................",
"........XX       XXXX                    XXX....................",
"........XX       XXXX                    XXX....................",
"........XX       XXXX                    XXX....................",
"........XX       XXXX                    XXX....................",
"........XX       XXXXXXXXXXXXXXXXX       XXX.......XXXXXXXXXXXXX",
"........XX       XXXXXXXXXXXXXXXXX       XXX.......XXXXXXXXXXXXX",
"........XX       XXXXXXXXXXXXXXXXX       XXX.......XXXXXXXXXXXXX",
"........XX       XXXXXXXXXXXXXXXXX       XXX.......XXXXXXXXXXXXX",
"........XX       XXXXXXXXXXXXXXXXX       XXX.......XXXXXXXXXXXXX",
"........XX       XXXXXXXXXXXXXXXXX       XXX.......XXXXXXXXXXXXX",
"........XX       XXXXXXXXXXXXXXXXX       XXX.......XXXXXXXXXXXXX",
"........XX       XXXXXXXXXXXXXXXXX       XXX.......XXXXXXXXXXXXX",
"........XX       XXXXXXXXXXXXXXXXX       XXX.......XXXXXXXXXXXXX",
"........XX       XXXXXXXXXXXXXXXXX       XXX.......XXXXXXXXXXXXX",
"........XX       XXXXXXXXXXXXXXXXX       XXX.......XXXXXXXXXXXXX",
"........XX       XXXXXXXXXXXXXXXXX       XXX.......XXXXXXXXXXXXX",
"........XX       XXXXXXXXXXXXXXXXX       XXX.......XXXXXXXXXXXXX",
"........XX       XXXXXXXXXXXXXXXXX       XXX.......XXXXXXXXXXXXX",
"........XX       XXXXXXXXXXXXXXXXX       XXX.......XXXXXXXXXXXXX",
"........XX       XXXXXXXXXXXXXXXXX       XXX.......XXXXXXXXXXXXX",
"........XX       XXXXXXXXXXXXXXXXX       XXX.......XXXXXXXXXXXXX",
"........XX       XXXXXXXXXXXXXXXXX       XXX.......XXXXXXXXXXXXX",
"........XX       XXXXXXXXXXXXXXXXX       XXX.......XXXXXXXXXXXXX",
"........XX       XXXXXXXXXXXXXXXXX       XXX.......XXXXXXXXXXXXX",
"........XX       XXXXXXXXXXXXXXXXX       XXX.......XXXXXXXXXXXXX",
"........XX       XXXXXXXXXXXXXXXXX       XXX.......XXXXXXXXXXXXX",
"........XX       XXXXXXXXXXXXXXXXX       XXX.......XXXXXXXXXXXXX",
"........XX       XXXXXXXXXXXXXXXXX       XXX.......XXXXXXXXXXXXX",
"........XX        XXXXXXXXXXXXXXXX       XXX.......XXXXXXXXXXXXX",
"........XX                               XXX.......XXXXXXXXXXXXX",
"........XX                               XXX.......XXXXXXXXXXXXX",
"........XXX                              XXX.......XXXXXXXXXXXXX",
"........XXX                              XXX.......XXXXXXXXXXXXX",
".........XXX                             XXX.......XXXXXXXXXXXXX",
"X.........XXX                            XXX.......XXXXXXXXXXXXX",
"X.........XXXXX                          XXX.......XXXXXXXXXXXXX",
"XX..........XXXXXXXXXXXXXXXXXXXXXXXXXXXXXXXX.......XXXXXXXXXXXXX",
"XX.............XXXXXXXXXXXXXXXXXXXXXXXXXXXXX.......XXXXXXXXXXXXX",
"XXX................................................XXXXXXXXXXXXX",
"XXX................................................XXXXXXXXXXXXX",
"XXXX...............................................XXXXXXXXXXXXX",
"XXXXX..............................................XXXXXXXXXXXXX",
"XXXXXX.............................................XXXXXXXXXXXXX",
"XXXXXXXX...........................................XXXXXXXXXXXXX",
"XXXXXXXXXX.........................................XXXXXXXXXXXXX",
"XXXXXXXXXXXXXXXXXXXXXXXXXXXXXXXXXXXXXXXXXXXXXXXXXXXXXXXXXXXXXXXX",
"XXXXXXXXXXXXXXXXXXXXXXXXXXXXXXXXXXXXXXXXXXXXXXXXXXXXXXXXXXXXXXXX",
"XXXXXXXXXXXXXXXXXXXXXXXXXXXXXXXXXXXXXXXXXXXXXXXXXXXXXXXXXXXXXXXX"
};
