/* XPM */
static char *_6_b6b6ce169613a6ccb490ccc1e39027a27d55ac75225d41ee44fa7e0637748411[] = {
/* columns rows colors chars-per-pixel */
"128 128 3 1 ",
"  c gray20",
". c #B2242E",
"X c None",
/* pixels */
"XXXXXXXXXXXXXXXXXXXXXXXXXXXXXXXXXXXXXXXXXXXXXXXXXXXXXXXXXXXXXXXXXXXXXXXXXXXXXXXXXXXXXXXXXXXXXXXXXXXXXXXXXXXXXXXXXXXXXXXXXXXXXXXX",
"XXXXXXXXXXXXXXXXXXXXXXXXXXXXXXXXXXXXXXXXXXXXXXXXXXXXXXXXXXXXXXXXXXXXXXXXXXXXXXXXXXXXXXXXXXXXXXXXXXXXXXXXXXXXXXXXXXXXXXXXXXXXXXXX",
"XXXXXXXXXXXXXXXXXXXXXXXXXXXXXXXXXXXXXXXXXXXXXXXXXXXXXXXXXXXXXXXXXXXXXXXXXXXXXXXXXXXXXXXXXXXXXXXXXXXXXXXXXXXXXXXXXXXXXXXXXXXXXXXX",
"XXXXXXXXXXXXXXXXXXXXXXXXXXXXXXXXXXXXXXXXXXXXXXXXXXXXXXXXXXXXXXXXXXXXXXXXXXXXXXXXXXXXXXXXXXXXXXXXXXXXXXXXXXXXXXXXXXXXXXXXXXXXXXXX",
"XXXXXXXXXXXXXXXXXXXXXXXXXXXXXXXXXXXXXXXXXXXXXXXXXXXXXXXXXXXXXXXXXXXXXXXXXXXXXXXXXXXXXXXXXXXXXXXXXXXXXXXXXXXXXXXXXXXXXXXXXXXXXXXX",
"XXXXXXXXXXXXXXXXXXXXXXXXXXXXXXXXXXXXXXXXXXXXXXXXXXXXXXXXXXXXXXXXXXXXXXXXXXXXXXXXXXXXXXXXXXXXXXXXXXXXXXXXXXXXXXXXXXXXXXXXXXXXXXXX",
"                                                                                                                                ",
"                                                                                                                                ",
"                                                                                                                                ",
"                                                                                                                                ",
"                                                                                                                                ",
"                                                                                                                                ",
"                                                                                                                                ",
"                                                                                                                                ",
"                                                                                                                                ",
"                                                                                                                                ",
"                                                                                                                                ",
"                                                                                                                                ",
"                                                                                                                                ",
"                                                                                                                                ",
"                                                                                                                                ",
"XXXXXXXXXXXXXXXXXXXXXXXXXXXXXXXXXXXXXXXXXXXXXXXXXXXXXXXXXXXXXXXXXXXXXXXXXXXXXXXXXXXXXXXXXXXXXXXXXXXXXXXXXXXXXXXXXXXXXXXXXXXXXXXX",
"XXXXXXXXXXXXXXXXXXXXXXXXXXXXXXXXXXXXXXXXXXXXXXXXXXXXXXXXXXXXXXXXXXXXXXXXXXXXXXXXXXXXXXXXXXXXXXXXXXXXXXXXXXXXXXXXXXXXXXXXXXXXXXXX",
"XXXXXXXXXXXXXXXXXXXXXXXXXXXXXXXXXXXXXXXXXXXXXXXXXXXXXXXXXXXXXXXXXXXXXXXXXXXXXXXXXXXXXXXXXXXXXXXXXXXXXXXXXXXXXXXXXXXXXXXXXXXXXXXX",
"XXXXXXXXXXXXXXXXXXXXXXXXXXXXXXXXXXXXXXXXXXXXXXXXXXXXXXXXXXXXXXXXXXXXXXXXXXXXXXXXXXXXXXXXXXXXXXXXXXXXXXXXXXXXXXXXXXXXXXXXXXXXXXXX",
"...............XXXXXX              XXXXXXXX                                       XXXXXXX.......................................",
"...............XXXXX               XXXXXXX                                        XXXXXX........................................",
"...............XXXXX               XXXXXXX                                        XXXXXX........................................",
"...............XXXXX               XXXXXXX                                        XXXXXX........................................",
"...............XXXXX               XXXXXXX                                        XXXXXX........................................",
"...............XXXXX               XXXXXXX                                        XXXXXX........................................",
"...............XXXXX               XXXXXXX                                        XXXXXX........................................",
"...............XXXXX               XXXXXXX                                        XXXXXX........................................",
"...............XXXXX               XXXXXXX                                        XXXXXX........................................",
"...............XXXXX               XXXXXXX                                        XXXXXX........................................",
"...............XXXXX               XXXXXXX                                        XXXXXX........................................",
"...............XXXXX               XXXXXXX                                        XXXXXX........................................",
"...............XXXXX               XXXXXXX                                        XXXXXX........................................",
"...............XXXXX               XXXXXXX                                        XXXXXX........................................",
"...............XXXXX               XXXXXXXXXXXXXXXXXXXXXXXXXXXXXXXX               XXXXXX...............XXXXXXXXXXXXXXXXXXXXXXXXX",
"...............XXXXX               XXXXXXXXXXXXXXXXXXXXXXXXXXXXXXXX               XXXXXX..............XXXXXXXXXXXXXXXXXXXXXXXXXX",
"...............XXXXX               XXXXXXXXXXXXXXXXXXXXXXXXXXXXXXXX               XXXXXX..............XXXXXXXXXXXXXXXXXXXXXXXXXX",
"...............XXXXX               XXXXXXXXXXXXXXXXXXXXXXXXXXXXXXXX               XXXXXX..............XXXXXXXXXXXXXXXXXXXXXXXXXX",
"...............XXXXX               XXXXXXXXXXXXXXXXXXXXXXXXXXXXXXXX               XXXXXX..............XXXXXXXXXXXXXXXXXXXXXXXXXX",
"...............XXXXX               XXXXXXXXXXXXXXXXXXXXXXXXXXXXXXXX               XXXXXX..............XXXXXXXXXXXXXXXXXXXXXXXXXX",
"...............XXXXX               XXXXXXXXXXXXXXXXXXXXXXXXXXXXXXXX               XXXXXX..............XXXXXXXXXXXXXXXXXXXXXXXXXX",
"...............XXXXX               XXXXXXXXXXXXXXXXXXXXXXXXXXXXXXXX               XXXXXX..............XXXXXXXXXXXXXXXXXXXXXXXXXX",
"...............XXXXX               XXXXXXXXXXXXXXXXXXXXXXXXXXXXXXXX               XXXXXX..............XXXXXXXXXXXXXXXXXXXXXXXXXX",
"...............XXXXX               XXXXXXXXXXXXXXXXXXXXXXXXXXXXXXXX               XXXXXX..............XXXXXXXXXXXXXXXXXXXXXXXXXX",
"...............XXXXX               XXXXXXXXXXXXXXXXXXXXXXXXXXXXXXXX               XXXXXX..............XXXXXXXXXXXXXXXXXXXXXXXXXX",
"...............XXXXX               XXXXXXXXXXXXXXXXXXXXXXXXXXXXXXXX               XXXXXX..............XXXXXXXXXXXXXXXXXXXXXXXXXX",
"...............XXXXX               XXXXXXXXXXXXXXXXXXXXXXXXXXXXXXXX               XXXXXX..............XXXXXXXXXXXXXXXXXXXXXXXXXX",
"...............XXXXX               XXXXXXXXXXXXXXXXXXXXXXXXXXXXXXXX               XXXXXX..............XXXXXXXXXXXXXXXXXXXXXXXXXX",
"...............XXXXX               XXXXXXXXXXXXXXXXXXXXXXXXXXXXXXXX               XXXXXX..............XXXXXXXXXXXXXXXXXXXXXXXXXX",
"...............XXXXX               XXXXXXXXXXXXXXXXXXXXXXXXXXXXXXXX               XXXXXX..............XXXXXXXXXXXXXXXXXXXXXXXXXX",
"...............XXXXX               XXXXXXXXXXXXXXXXXXXXXXXXXXXXXXXX               XXXXXX..............XXXXXXXXXXXXXXXXXXXXXXXXXX",
"...............XXXXX               XXXXXXXXXXXXXXXXXXXXXXXXXXXXXXXX               XXXXXX..............XXXXXXXXXXXXXXXXXXXXXXXXXX",
"...............XXXXX               XXXXXXXXXXXXXXXXXXXXXXXXXXXXXXXX               XXXXXX..............XXXXXXXXXXXXXXXXXXXXXXXXXX",
"...............XXXXX               XXXXXXXXXXXXXXXXXXXXXXXXXXXXXXXX               XXXXXX..............XXXXXXXXXXXXXXXXXXXXXXXXXX",
"...............XXXXX               XXXXXXXXXXXXXXXXXXXXXXXXXXXXXXXX               XXXXXX..............XXXXXXXXXXXXXXXXXXXXXXXXXX",
"...............XXXXX               XXXXXXXXXXXXXXXXXXXXXXXXXXXXXXXX               XXXXXX..............XXXXXXXXXXXXXXXXXXXXXXXXXX",
"...............XXXXX               XXXXXXXXXXXXXXXXXXXXXXXXXXXXXXXX               XXXXXX..............XXXXXXXXXXXXXXXXXXXXXXXXXX",
"...............XXXXX               XXXXXXXXXXXXXXXXXXXXXXXXXXXXXXXX               XXXXXX..............XXXXXXXXXXXXXXXXXXXXXXXXXX",
"...............XXXXX               XXXXXXXXXXXXXXXXXXXXXXXXXXXXXXXX               XXXXXX..............XXXXXXXXXXXXXXXXXXXXXXXXXX",
"...............XXXXX               XXXXXXXXXXXXXXXXXXXXXXXXXXXXXXXX               XXXXXX..............XXXXXXXXXXXXXXXXXXXXXXXXXX",
"...............XXXXX               XXXXXXXXXXXXXXXXXXXXXXXXXXXXXXXX               XXXXXX..............XXXXXXXXXXXXXXXXXXXXXXXXXX",
"...............XXXXX               XXXXXXXXXXXXXXXXXXXXXXXXXXXXXXXX               XXXXXX..............XXXXXXXXXXXXXXXXXXXXXXXXXX",
"...............XXXXX               XXXXXXXXXXXXXXXXXXXXXXXXXXXXXXXX               XXXXXX..............XXXXXXXXXXXXXXXXXXXXXXXXXX",
"...............XXXXX               XXXXXXXXXXXXXXXXXXXXXXXXXXXXXXXX               XXXXXX..............XXXXXXXXXXXXXXXXXXXXXXXXXX",
"...............XXXXX               XXXXXXXXXXXXXXXXXXXXXXXXXXXXXXXX               XXXXXX..............XXXXXXXXXXXXXXXXXXXXXXXXXX",
"...............XXXXX               XXXXXXXXXXXXXXXXXXXXXXXXXXXXXXXX               XXXXXX..............XXXXXXXXXXXXXXXXXXXXXXXXXX",
"...............XXXXX               XXXXXXXXXXXXXXXXXXXXXXXXXXXXXXXX               XXXXXX..............XXXXXXXXXXXXXXXXXXXXXXXXXX",
"...............XXXXX               XXXXXXXXXXXXXXXXXXXXXXXXXXXXXXXX               XXXXXX..............XXXXXXXXXXXXXXXXXXXXXXXXXX",
"...............XXXXX               XXXXXXXXXXXXXXXXXXXXXXXXXXXXXXXX               XXXXXX..............XXXXXXXXXXXXXXXXXXXXXXXXXX",
"...............XXXXX               XXXXXXXXXXXXXXXXXXXXXXXXXXXXXXXX               XXXXXX..............XXXXXXXXXXXXXXXXXXXXXXXXXX",
"...............XXXXX               XXXXXXXXXXXXXXXXXXXXXXXXXXXXXXXX               XXXXXX..............XXXXXXXXXXXXXXXXXXXXXXXXXX",
"...............XXXXX               XXXXXXXXXXXXXXXXXXXXXXXXXXXXXXXX               XXXXXX..............XXXXXXXXXXXXXXXXXXXXXXXXXX",
"...............XXXXX               XXXXXXXXXXXXXXXXXXXXXXXXXXXXXXXX               XXXXXX..............XXXXXXXXXXXXXXXXXXXXXXXXXX",
"...............XXXXX               XXXXXXXXXXXXXXXXXXXXXXXXXXXXXXXX               XXXXXX..............XXXXXXXXXXXXXXXXXXXXXXXXXX",
"...............XXXXX               XXXXXXXXXXXXXXXXXXXXXXXXXXXXXXXX               XXXXXX..............XXXXXXXXXXXXXXXXXXXXXXXXXX",
"...............XXXXX               XXXXXXXXXXXXXXXXXXXXXXXXXXXXXXXX               XXXXXX..............XXXXXXXXXXXXXXXXXXXXXXXXXX",
"...............XXXXX               XXXXXXXXXXXXXXXXXXXXXXXXXXXXXXXX               XXXXXX..............XXXXXXXXXXXXXXXXXXXXXXXXXX",
"...............XXXXX               XXXXXXXXXXXXXXXXXXXXXXXXXXXXXXXX               XXXXXX..............XXXXXXXXXXXXXXXXXXXXXXXXXX",
"...............XXXXX               XXXXXXXXXXXXXXXXXXXXXXXXXXXXXXXX               XXXXXX..............XXXXXXXXXXXXXXXXXXXXXXXXXX",
"...............XXXXX               XXXXXXXXXXXXXXXXXXXXXXXXXXXXXXXX               XXXXXX..............XXXXXXXXXXXXXXXXXXXXXXXXXX",
"...............XXXXX               XXXXXXXXXXXXXXXXXXXXXXXXXXXXXXXX               XXXXXX..............XXXXXXXXXXXXXXXXXXXXXXXXXX",
"...............XXXXX               XXXXXXXXXXXXXXXXXXXXXXXXXXXXXXXX               XXXXXX..............XXXXXXXXXXXXXXXXXXXXXXXXXX",
"...............XXXXX               XXXXXXXXXXXXXXXXXXXXXXXXXXXXXXXX               XXXXXX..............XXXXXXXXXXXXXXXXXXXXXXXXXX",
"...............XXXXX               XXXXXXXXXXXXXXXXXXXXXXXXXXXXXXXX               XXXXXX..............XXXXXXXXXXXXXXXXXXXXXXXXXX",
"...............XXXXX                 XXXXXXXXXXXXXXXXXXXXXXXXXXXXXX               XXXXXX..............XXXXXXXXXXXXXXXXXXXXXXXXXX",
"...............XXXXX                                                              XXXXXX..............XXXXXXXXXXXXXXXXXXXXXXXXXX",
"................XXXXX                                                             XXXXXX..............XXXXXXXXXXXXXXXXXXXXXXXXXX",
"................XXXXX                                                             XXXXXX..............XXXXXXXXXXXXXXXXXXXXXXXXXX",
"................XXXXX                                                             XXXXXX..............XXXXXXXXXXXXXXXXXXXXXXXXXX",
"................XXXXX                                                             XXXXXX..............XXXXXXXXXXXXXXXXXXXXXXXXXX",
"................XXXXXX                                                            XXXXXX..............XXXXXXXXXXXXXXXXXXXXXXXXXX",
".................XXXXX                                                            XXXXXX..............XXXXXXXXXXXXXXXXXXXXXXXXXX",
"X................XXXXXX                                                           XXXXXX..............XXXXXXXXXXXXXXXXXXXXXXXXXX",
"X................XXXXXXX                                                          XXXXXX..............XXXXXXXXXXXXXXXXXXXXXXXXXX",
"X.................XXXXXXX                                                         XXXXXX..............XXXXXXXXXXXXXXXXXXXXXXXXXX",
"X..................XXXXXXX                                                        XXXXXX..............XXXXXXXXXXXXXXXXXXXXXXXXXX",
"XX.................XXXXXXXX                                                       XXXXXX..............XXXXXXXXXXXXXXXXXXXXXXXXXX",
"XX..................XXXXXXXXX                                                     XXXXXX..............XXXXXXXXXXXXXXXXXXXXXXXXXX",
"XXX..................XXXXXXXXXXX                                                  XXXXXX..............XXXXXXXXXXXXXXXXXXXXXXXXXX",
"XXX....................XXXXXXXXXXXXXXXXXXXXXXXXXXXXXXXXXXXXXXXXXXXXXXXXXXXXXXXXXXXXXXXXX..............XXXXXXXXXXXXXXXXXXXXXXXXXX",
"XXX......................XXXXXXXXXXXXXXXXXXXXXXXXXXXXXXXXXXXXXXXXXXXXXXXXXXXXXXXXXXXXXXX..............XXXXXXXXXXXXXXXXXXXXXXXXXX",
"XXXX.......................XXXXXXXXXXXXXXXXXXXXXXXXXXXXXXXXXXXXXXXXXXXXXXXXXXXXXXXXXXXXX..............XXXXXXXXXXXXXXXXXXXXXXXXXX",
"XXXX..................................................................................................XXXXXXXXXXXXXXXXXXXXXXXXXX",
"XXXXX.................................................................................................XXXXXXXXXXXXXXXXXXXXXXXXXX",
"XXXXXX................................................................................................XXXXXXXXXXXXXXXXXXXXXXXXXX",
"XXXXXX................................................................................................XXXXXXXXXXXXXXXXXXXXXXXXXX",
"XXXXXXX...............................................................................................XXXXXXXXXXXXXXXXXXXXXXXXXX",
"XXXXXXXX..............................................................................................XXXXXXXXXXXXXXXXXXXXXXXXXX",
"XXXXXXXXX.............................................................................................XXXXXXXXXXXXXXXXXXXXXXXXXX",
"XXXXXXXXXX............................................................................................XXXXXXXXXXXXXXXXXXXXXXXXXX",
"XXXXXXXXXXX...........................................................................................XXXXXXXXXXXXXXXXXXXXXXXXXX",
"XXXXXXXXXXXX..........................................................................................XXXXXXXXXXXXXXXXXXXXXXXXXX",
"XXXXXXXXXXXXXX........................................................................................XXXXXXXXXXXXXXXXXXXXXXXXXX",
"XXXXXXXXXXXXXXX.......................................................................................XXXXXXXXXXXXXXXXXXXXXXXXXX",
"XXXXXXXXXXXXXXXXX.....................................................................................XXXXXXXXXXXXXXXXXXXXXXXXXX",
"XXXXXXXXXXXXXXXXXXX...................................................................................XXXXXXXXXXXXXXXXXXXXXXXXXX",
"XXXXXXXXXXXXXXXXXXXXXXX...............................................................................XXXXXXXXXXXXXXXXXXXXXXXXXX",
"XXXXXXXXXXXXXXXXXXXXXXXXXXXXXXXXXXXXXXXXXXXXXXXXXXXXXXXXXXXXXXXXXXXXXXXXXXXXXXXXXXXXXXXXXXXXXXXXXXXX.XXXXXXXXXXXXXXXXXXXXXXXXXXX",
"XXXXXXXXXXXXXXXXXXXXXXXXXXXXXXXXXXXXXXXXXXXXXXXXXXXXXXXXXXXXXXXXXXXXXXXXXXXXXXXXXXXXXXXXXXXXXXXXXXXXXXXXXXXXXXXXXXXXXXXXXXXXXXXX",
"XXXXXXXXXXXXXXXXXXXXXXXXXXXXXXXXXXXXXXXXXXXXXXXXXXXXXXXXXXXXXXXXXXXXXXXXXXXXXXXXXXXXXXXXXXXXXXXXXXXXXXXXXXXXXXXXXXXXXXXXXXXXXXXX",
"XXXXXXXXXXXXXXXXXXXXXXXXXXXXXXXXXXXXXXXXXXXXXXXXXXXXXXXXXXXXXXXXXXXXXXXXXXXXXXXXXXXXXXXXXXXXXXXXXXXXXXXXXXXXXXXXXXXXXXXXXXXXXXXX",
"XXXXXXXXXXXXXXXXXXXXXXXXXXXXXXXXXXXXXXXXXXXXXXXXXXXXXXXXXXXXXXXXXXXXXXXXXXXXXXXXXXXXXXXXXXXXXXXXXXXXXXXXXXXXXXXXXXXXXXXXXXXXXXXX",
"XXXXXXXXXXXXXXXXXXXXXXXXXXXXXXXXXXXXXXXXXXXXXXXXXXXXXXXXXXXXXXXXXXXXXXXXXXXXXXXXXXXXXXXXXXXXXXXXXXXXXXXXXXXXXXXXXXXXXXXXXXXXXXXX"
};
