/* XPM */
static char *_2977_4041bdbafbad1adea7065d369fd12fae0e694903f6fc18aebaabf2366c2d5970[] = {
/* columns rows colors chars-per-pixel */
"16 16 18 1 ",
"  c #313333",
". c #323333",
"X c gray20",
"o c #343333",
"O c #3C3233",
"+ c #3D3233",
"@ c #473132",
"# c #483132",
"$ c #9D262F",
"% c #9D272F",
"& c #9E262F",
"* c #AB252E",
"= c #AD252E",
"- c #B2242E",
"; c #B3242E",
": c #B4242E",
"> c #B5242E",
", c None",
/* pixels */
",,,,,,,,,,,,,,,,",
"XXXXXXXXXXXXXXXX",
"+OoXXXXXXXoO++++",
";>,.,XXXX.,>;;;;",
"-:#.,XXXX.,>----",
"-:#.,,,,X.,:-,,,",
"-:#.,,,,X.,:-,,,",
"-:#.,,,,X.,:-,,,",
"-:#.,,,,X.,:-,,,",
"-:#.,,,,X.,:-,,,",
"-:@.,,,,X.,:-,,,",
"-:,.XXXXX.,>-,,,",
"-;,o..... ,:-,,,",
",-;=&%$$$$*--,,,",
",---;;;;;;---,,,",
",,,,,,,,,,,,,,,,"
};
