/* XPM */
static char *_7981_125eca2c06abef63a066b823bedc3b7f93f5baa9c53fecf9d3bbd1c8834f30b8[] = {
/* columns rows colors chars-per-pixel */
"32 32 10 1 ",
"  c #303333",
". c #313333",
"X c #323333",
"o c gray20",
"O c #B7232E",
"+ c #B2242E",
"@ c #B3242E",
"# c #B5242E",
"$ c #B6242E",
"% c None",
/* pixels */
"%%%%%%%%%%%%%%%%%%%%%%%%%%%%%%%%",
"oooooooooooooooooooooooooooooooo",
"oooooooooooooooooooooooooooooooo",
"oooooooooooooooooooooooooooooooo",
"oooooooooooooooooooooooooooooooo",
"%%%%%%%%%%%%%%%%%%%%%%%%%%%%%%%%",
"###O%Xoo%%%ooooooooo%%$#########",
"+++@%Xooo%%oooooooooX%++++++++++",
"+++@%Xooo%%oooooooooX%++++++++++",
"+++@%Xooo%%oooooooooX%++++++++++",
"+++@%Xooo%%%%%%%%oooX%++++%%%%%%",
"+++@%Xooo%%%%%%%%oooX%+++%%%%%%%",
"+++@%Xooo%%%%%%%%oooX%+++%%%%%%%",
"+++@%Xooo%%%%%%%%oooX%+++%%%%%%%",
"+++@%Xooo%%%%%%%%oooX%+++%%%%%%%",
"+++@%Xooo%%%%%%%%oooX%+++%%%%%%%",
"+++@%Xooo%%%%%%%%oooX%+++%%%%%%%",
"+++@%Xooo%%%%%%%%oooX%+++%%%%%%%",
"+++@%Xooo%%%%%%%%oooX%+++%%%%%%%",
"+++@%Xooo%%%%%%%%oooX%+++%%%%%%%",
"+++@%Xooo%%%%%%%%oooX%+++%%%%%%%",
"+++@%Xooo%%%%%%%%oooX%+++%%%%%%%",
"+++@%Xoooo%%%%%%ooooX%+++%%%%%%%",
"++++%.ooooooooooooooX%+++%%%%%%%",
"++++%%ooooooooooooooX%+++%%%%%%%",
"+++++%% ............%%+++%%%%%%%",
"%+++++%%%%%%%%%%%%%%%%+++%%%%%%%",
"%%++++++@@@@@@@@@@@@@++++%%%%%%%",
"%%+++++++++++++++++++++++%%%%%%%",
"%%%%+++++++++++++++++++++%%%%%%%",
"%%%%%%+++++++++++++++++++%%%%%%%",
"%%%%%%%%%%%%%%%%%%%%%%%%%%%%%%%%"
};
